HIERARCHY
ROOT Hips
{
	OFFSET 0.000000 0.000000 0.000000
	CHANNELS 6 Xposition Yposition Zposition Xrotation Yrotation Zrotation
	JOINT LeftUpLeg_virtual
	{
		OFFSET 0.000000 0.000000 0.000000
		CHANNELS 3 Xrotation Yrotation Zrotation
		JOINT LeftUpLeg
		{
			OFFSET 10.205400 -3.823500 0.155100
			CHANNELS 3 Xrotation Yrotation Zrotation
			JOINT LeftLeg
			{
				OFFSET 0.708757 -12.982077 0.567790
				CHANNELS 3 Xrotation Yrotation Zrotation
				JOINT LeftFoot
				{
					OFFSET -0.708756 -10.717838 -2.184338
					CHANNELS 3 Xrotation Yrotation Zrotation
					JOINT LeftToeBase
					{
						OFFSET 0.108149 -7.191104 7.560241
						CHANNELS 3 Xrotation Yrotation Zrotation
						JOINT LeftToe_End
						{
							OFFSET 0.070230 0.081724 4.490308
							CHANNELS 3 Xrotation Yrotation Zrotation
							End Site
							{
								OFFSET 0 0 0
							}
						}
					}
				}
			}
		}
	}
	JOINT RightUpLeg_virtual
	{
		OFFSET 0.000000 0.000000 0.000000
		CHANNELS 3 Xrotation Yrotation Zrotation
		JOINT RightUpLeg
		{
			OFFSET -10.205400 -3.823500 0.005500
			CHANNELS 3 Xrotation Yrotation Zrotation
			JOINT RightLeg
			{
				OFFSET -0.708756 -12.982134 0.610632
				CHANNELS 3 Xrotation Yrotation Zrotation
				JOINT RightFoot
				{
					OFFSET 0.708754 -10.717769 -1.945823
					CHANNELS 3 Xrotation Yrotation Zrotation
					JOINT RightToeBase
					{
						OFFSET -0.108140 -7.191069 7.372968
						CHANNELS 3 Xrotation Yrotation Zrotation
						JOINT RightToe_End
						{
							OFFSET -0.070227 0.081735 4.479403
							CHANNELS 3 Xrotation Yrotation Zrotation
							End Site
							{
								OFFSET 0 0 0
							}
						}
					}
				}
			}
		}
	}
	JOINT Spine_virtual
	{
		OFFSET 0.000000 0.000000 0.000000
		CHANNELS 3 Xrotation Yrotation Zrotation
		JOINT Spine
		{
			OFFSET 0.000000 6.876099 0.125700
			CHANNELS 3 Xrotation Yrotation Zrotation
			JOINT Spine1
			{
				OFFSET 0.000000 5.730043 0.104720
				CHANNELS 3 Xrotation Yrotation Zrotation
				JOINT Spine1_split
				{
					OFFSET 0.000000 5.730043 0.104720
					CHANNELS 3 Xrotation Yrotation Zrotation
					JOINT Spine2
					{
						OFFSET 0.000000 5.730043 0.104720
						CHANNELS 3 Xrotation Yrotation Zrotation
						JOINT Neck_virtual
						{
							OFFSET 0.000000 0.000000 0.000000
							CHANNELS 3 Xrotation Yrotation Zrotation
							JOINT Neck
							{
								OFFSET 0.000000 10.314075 0.188496
								CHANNELS 3 Xrotation Yrotation Zrotation
								JOINT Head
								{
									OFFSET 0.000000 7.643700 -2.377400
									CHANNELS 3 Xrotation Yrotation Zrotation
									JOINT HeadTop_End
									{
										OFFSET 0.000000 43.788605 -13.619600
										CHANNELS 3 Xrotation Yrotation Zrotation
										End Site
										{
											OFFSET 0 0 0
										}
									}
								}
							}
						}
						JOINT LeftShoulder_virtual
						{
							OFFSET 0.000000 0.000000 0.000000
							CHANNELS 3 Xrotation Yrotation Zrotation
							JOINT LeftShoulder
							{
								OFFSET 2.196100 4.412489 0.087492
								CHANNELS 3 Xrotation Yrotation Zrotation
								JOINT LeftShoulder_split
								{
									OFFSET 2.196100 4.412489 0.087492
									CHANNELS 3 Xrotation Yrotation Zrotation
									JOINT LeftArm
									{
										OFFSET 8.771219 -2.981674 -0.026999
										CHANNELS 3 Xrotation Yrotation Zrotation
										JOINT LeftForeArm
										{
											OFFSET 8.512804 0.000000 -0.000000
											CHANNELS 3 Xrotation Yrotation Zrotation
											JOINT LeftHand
											{
												OFFSET 18.484802 0.000000 -0.000000
												CHANNELS 3 Xrotation Yrotation Zrotation
												End Site
												{
													OFFSET 0 0 0
												}
											}
										}
									}
								}
							}
						}
						JOINT RightShoulder_virtual
						{
							OFFSET 0.000000 0.000000 0.000000
							CHANNELS 3 Xrotation Yrotation Zrotation
							JOINT RightShoulder
							{
								OFFSET -2.196100 4.412496 0.070690
								CHANNELS 3 Xrotation Yrotation Zrotation
								JOINT RightShoulder_split
								{
									OFFSET -2.196100 4.412496 0.070690
									CHANNELS 3 Xrotation Yrotation Zrotation
									JOINT RightArm
									{
										OFFSET -8.771282 -2.981682 -0.094208
										CHANNELS 3 Xrotation Yrotation Zrotation
										JOINT RightForeArm
										{
											OFFSET -8.494598 0.000000 0.000000
											CHANNELS 3 Xrotation Yrotation Zrotation
											JOINT RightHand
											{
												OFFSET -18.483803 0.000000 0.000001
												CHANNELS 3 Xrotation Yrotation Zrotation
												End Site
												{
													OFFSET 0 0 0
												}
											}
										}
									}
								}
							}
						}
					}
				}
			}
		}
	}
}
MOTION
Frames: 4
Frame Time: 0.03333333
1.186178 31.652967 1.035715 0.000000 0.000000 0.000000 179.828950 50.060195 178.042978 -22.580964 -9.675581 12.063769 25.422528 -3.031897 -0.646234 -3.968293 1.178872 -13.927986 -9.809738 2.004622 -3.071546 0.000000 0.000000 0.000000 176.478674 46.023522 -178.760394 -8.231211 -3.801779 -15.469656 43.436352 -0.985934 -1.835160 -23.424678 -11.368395 18.265768 4.040634 -0.013279 0.322899 0.000000 0.000000 0.000000 178.054016 51.413880 -178.946844 5.582443 0.668028 8.421403 16.328652 0.587983 -0.576746 9.017698 13.498475 -1.269099 0.000000 0.000000 0.000000 17.159535 0.266366 -2.106512 -29.815524 -4.954572 -2.429846 -3.744394 -8.443979 6.452222 0.000000 0.000000 0.000000 19.535559 -0.124833 -1.376626 4.863261 -14.037263 -13.748215 -14.440272 -13.907318 -2.857670 21.678826 1.978616 -29.423833 46.060142 -74.552348 33.450653 0.000000 0.000000 0.000000 18.603229 1.161801 -1.047514 -0.167323 7.341757 -4.887388 9.356707 1.969777 -0.599425 -19.419689 -20.204024 67.069268 6.573681 57.881202 -8.241768 0.000000 0.000000 0.000000 
1.170021 31.397251 0.972095 0.000000 0.000000 0.000000 179.460338 50.295676 177.316465 -22.736368 -7.732141 12.762180 28.007568 -2.904335 -0.600946 -4.329482 1.060965 -12.519509 -10.047618 2.080342 -3.298716 0.000000 0.000000 0.000000 175.729047 46.437210 -179.134169 -10.892636 -3.816039 -15.144495 43.252945 -1.276942 -0.766623 -23.255812 -10.664662 17.046839 4.500486 0.282839 0.561836 0.000000 0.000000 0.000000 176.893143 50.989302 -179.387556 6.196179 0.086896 8.362044 16.176378 0.337842 -0.673045 6.954824 12.015618 -3.420676 0.000000 0.000000 0.000000 16.419739 -0.020767 -1.894996 -27.609672 -5.242418 -3.167150 -2.345467 -8.193786 6.211540 0.000000 0.000000 0.000000 19.175638 -0.468610 -1.665687 4.496045 -15.504813 -13.507094 -11.301483 -12.268565 -2.716022 19.597249 2.018061 -28.730641 41.941859 -73.003978 29.187895 0.000000 0.000000 0.000000 18.853955 1.121257 -1.193870 -0.183479 8.906827 -4.071807 10.125060 -0.758490 0.278593 -20.353310 -20.151406 66.438978 5.767176 56.960608 -7.104055 0.000000 0.000000 0.000000 
1.043352 30.908890 0.726749 0.000000 0.000000 0.000000 176.566018 52.492084 178.502090 -24.896734 -5.392749 15.104786 33.308944 -2.738338 -0.119614 -5.498173 1.558498 -12.954452 -10.819322 2.481306 -3.655796 0.000000 0.000000 0.000000 172.907386 48.680756 -178.141483 -17.448727 -2.510792 -14.050079 45.090382 -0.274174 0.927143 -19.550416 -8.892755 17.683742 3.532651 0.711154 0.098085 0.000000 0.000000 0.000000 173.404023 52.468185 -178.290368 6.784535 -0.484048 8.012541 15.432100 0.125715 -0.630289 5.809413 8.931463 -2.703149 0.000000 0.000000 0.000000 14.930464 -0.384298 -1.516995 -24.241815 -5.687911 -3.443603 -0.528684 -9.983265 7.351144 0.000000 0.000000 0.000000 18.186567 -0.812807 -1.918220 3.701263 -17.066411 -12.625536 -9.383071 -9.779412 -3.323280 19.427063 -0.295731 -24.907904 37.081889 -69.945829 23.616448 0.000000 0.000000 0.000000 18.618933 1.080774 -1.154305 -0.246953 10.240269 -3.477136 9.306821 -3.445896 1.147773 -20.761212 -16.214336 63.889945 4.627696 51.952079 -5.036628 0.000000 0.000000 0.000000 
0.782641 30.321148 0.329130 0.000000 0.000000 0.000000 171.145867 56.395827 -178.239373 -28.468782 -2.637040 18.634836 39.898290 -2.128988 0.531698 -9.083032 2.918444 -14.528991 -12.338564 2.991402 -3.436059 0.000000 0.000000 0.000000 167.814565 52.215024 -175.057544 -26.208414 -0.134554 -11.754559 48.513922 1.311825 2.543224 -15.168375 -6.529061 18.303290 1.986673 1.184769 -0.679624 0.000000 0.000000 0.000000 167.458125 55.151288 -174.833254 7.385409 -0.877025 7.357493 14.361699 0.019295 -0.556737 4.440367 6.089952 -0.512342 0.000000 0.000000 0.000000 13.159351 -0.673408 -1.167726 -20.853664 -6.221489 -3.005484 0.411175 -12.949198 9.368865 0.000000 0.000000 0.000000 16.906043 -1.001035 -2.148541 2.633460 -18.474460 -11.213325 -7.875136 -6.691673 -3.974984 21.069252 -2.392295 -19.533178 34.947066 -67.701976 20.356899 0.000000 0.000000 0.000000 17.934349 0.994758 -1.016651 -0.361546 10.651771 -3.620350 7.386792 -4.637710 1.763971 -19.753361 -10.059678 61.124920 4.116540 44.933684 -3.094029 0.000000 0.000000 0.000000 
